<?xml version="1.0" encoding="UTF-8" standalone="no"?>
<!DOCTYPE svg PUBLIC "-//W3C//DTD SVG 1.1//EN" "http://www.w3.org/Graphics/SVG/1.1/DTD/svg11.dtd">
<svg width="100%" height="100%" viewBox="0 0 949 561" version="1.1" xmlns="http://www.w3.org/2000/svg" xmlns:xlink="http://www.w3.org/1999/xlink" xml:space="preserve" xmlns:serif="http://www.serif.com/" style="fill-rule:evenodd;clip-rule:evenodd;stroke-linejoin:round;stroke-miterlimit:2;">
    <g transform="matrix(1,0,0,1,-2468.89,-217.779)">
        <rect id="Artboard2" x="1970" y="0" width="1920" height="1080" style="fill:none;"/>
        <g id="Artboard21" serif:id="Artboard2">
            <g transform="matrix(1,0,0,1,2048.75,78.7467)">
                <path d="M1067.02,343.507C1066.98,334.294 1066.92,325.695 1066.86,317.686C1086.59,330.058 1117.03,346.175 1173.37,376.925C1231.07,408.415 1238.65,440.303 1277.94,487.508C1272.97,495.219 1267.96,502.96 1262.94,510.673C1227.1,469.502 1223.74,441.706 1170.67,412.018C1127.23,387.712 1094.1,365.187 1067.02,343.507ZM1006.03,229.935C1010.3,222.154 1014.92,213.74 1019.83,204.807C1031.07,218.954 1041.96,231.421 1052.28,240.026C1062.25,248.343 1062.48,247.956 1186.7,315.719C1240.11,344.857 1254.3,382.798 1305.47,444.419C1300.82,451.759 1296.06,459.233 1291.24,466.785C1264.35,433.088 1236.56,392.151 1213.55,370.999C1197.95,356.65 1190.47,354.65 1072.4,289.958C1041.93,273.262 1024.3,254.055 1006.03,229.935ZM1026.54,192.624C1030.96,184.616 1035.58,176.267 1040.37,167.649C1051.35,180.952 1064.98,193.387 1087.83,206.172C1225.13,282.991 1259.41,342.017 1325.43,412.809C1321.28,419.401 1317.01,426.193 1312.62,433.136C1280.26,394.813 1250.66,353.082 1221.49,323.685C1201.15,303.187 1179.35,292.686 1085.13,241.265C1056.69,225.744 1040.43,210.125 1026.54,192.624ZM1047.1,155.545C1050.12,150.124 1053.2,144.614 1056.33,139.032C1072,141.247 1101.12,145.414 1136.04,150.787C1178.11,206.046 1216.15,254.625 1313.52,328.435C1331.68,342.2 1342.61,355.956 1351.85,370.542C1345.64,380.513 1338.75,391.562 1331.35,403.379C1253.09,325.047 1224.33,273.957 1084.53,187.836C1067.97,177.636 1056.65,166.935 1047.1,155.545ZM1147.38,152.542C1155.55,153.816 1163.98,155.147 1172.57,156.528C1175.79,161.086 1179.01,165.509 1182.24,169.768C1183.89,176.818 1185.96,185.957 1188.2,196.09C1192.88,194.787 1197.38,193.536 1201.67,192.343C1219.14,209.045 1246.47,226.623 1318.07,275.196C1323.26,278.723 1328.01,282.209 1332.36,285.675C1346.38,307.131 1356.88,324.774 1368.5,343.702C1365.73,348.176 1362.64,353.156 1359.28,358.575C1349.04,342.135 1336.39,326.796 1312,309.865C1224.49,249.143 1183.19,201.088 1147.38,152.542ZM1218.85,187.582C1240.22,181.673 1253.61,178.022 1254.62,177.743C1275.73,205.153 1292.23,227.512 1305.74,246.603C1288.05,234.575 1262.3,217.17 1224.15,191.3C1222.33,190.068 1220.57,188.829 1218.85,187.582ZM1243.35,505.946C1164.04,479.888 1157.86,478.504 1067.01,449.075C1067.16,412.77 1067.15,381.62 1067.07,355.116C1094.61,377.91 1128.39,402.269 1173.98,430.354C1209.99,452.538 1221.23,477.088 1243.35,505.946ZM435.501,642.28L435.509,626.769L420.139,626.13L420.184,579.144C448.036,580.466 447.753,580.977 475.353,583.597L474.923,567.866C447.445,565.278 447.728,564.736 420.2,563.32L420.23,532.158C441.37,533.412 458.434,535.52 486.468,537.91L487.041,553.485L499.825,554.582C500.312,565.153 502.346,609.502 504.447,647.802C454.538,643.686 454.769,643.097 435.501,642.28ZM476.234,614.734L475.785,599.06C462.66,597.817 452.365,596.76 450.329,596.551L450.371,612.23C452.439,612.438 462.921,613.49 476.234,614.734ZM579.671,697.433C579.258,693.905 577.271,676.915 574.998,653.284C552.669,651.641 535.703,650.309 532.286,650.041L531.179,634.798L517.327,633.662C515.174,599.141 512.937,557.286 512.848,555.647L526.104,556.683L525.154,540.958C556.298,543.231 588.77,545.149 594.304,545.476C597.595,587.309 602.469,648.057 609.228,699.174L579.671,697.433ZM572.221,622.767C571.894,618.983 570.41,601.806 568.382,575.452C554.003,574.431 542.859,573.582 540.64,573.412C542.422,599.638 543.712,616.799 543.996,620.57L572.221,622.767ZM633.529,657.44L631.89,642.331L617.138,641.291C613.399,604.814 609.879,560.382 608.757,546.315L638.218,547.947C638.558,552.216 641.919,595.036 645.179,628.015L675.2,630.048C672.012,597.673 668.884,556.371 668.36,549.53L699.114,551.083C700.279,567.411 703.42,611.635 707.165,647.429L691.926,646.419L693.596,661.475L633.529,657.44ZM739.476,664.467L737.884,649.445L722.486,648.437C722.098,644.662 720.331,627.449 718.264,601.189C723.303,601.496 777.005,604.767 781.255,604.886L780.272,588.275C775.821,588.141 722.074,585.048 717.014,584.756C715.983,570.768 714.878,554.486 714.699,551.854C778.412,554.987 778.246,554.935 796.124,555.497L796.924,572.232L814.545,572.725C815.107,585.153 817.153,631.159 820.348,667.93C779.641,667.291 779.882,667.082 739.476,664.467ZM783.487,636.965L782.309,620.964C777.377,620.836 763.4,619.9 750.628,619.097L751.94,635.067C764.535,635.88 778.562,636.849 783.487,636.965ZM837.47,668.185C834.494,630.253 832.625,583.73 831.556,556.499C834.409,556.571 849.32,556.946 867.215,557.286L867.736,573.903L885.555,574.195L885.112,557.599C889.422,557.668 911.975,558.027 938.993,558.214L939.395,591.139C921.565,591.031 906.636,590.862 903.787,590.83L904.191,606.993C886.488,606.807 871.689,606.578 868.862,606.534C869.049,611.502 870.202,642.267 871.802,668.607L837.47,668.185ZM957.97,669.157L957.631,639.235L992.677,639.257L992.894,591.252L975.057,591.261L975.004,558.354C1002.04,558.379 1024.7,558.196 1029.02,558.161C1028.94,564.004 1028.37,606.849 1027.71,639.135L1062.69,638.869C1062.13,654.94 1061.6,666.464 1061.49,668.863C1027.84,669.128 991.914,669.231 957.97,669.157ZM993.065,541.11L993.12,504.491L1029.42,504.357L1029.21,540.928C1011.15,541.072 995.956,541.104 993.065,541.11ZM1095.9,668.534L1096.79,653.7L1079.47,653.901C1081.16,618.874 1082.38,575.093 1082.87,557.484C1085.72,557.435 1100.79,557.177 1118.59,556.762C1118.29,564.666 1116.8,606.144 1115,638.2L1149.7,637.574C1151.9,605.66 1153.69,564.847 1154.09,555.826C1156.89,555.744 1181.11,555.029 1189.04,554.643C1188.1,572.82 1185.83,616.769 1182.6,652.083C1174.11,652.635 1174.24,652.401 1165.76,652.572L1164.39,667.529C1158.91,667.628 1130.31,668.146 1095.9,668.534ZM1288.43,660.083C1292.51,624.968 1295.96,581.947 1295.98,581.708L1280.79,582.613C1280.38,587.683 1277.85,619.095 1275,645.931L1244.51,647.952C1247.28,621.138 1249.65,589.496 1250.03,584.408L1234.48,585.302C1234.03,591.613 1231.14,632.064 1227.52,664.079L1196.65,666.073C1200.55,630.015 1203.15,586.279 1204.08,570.568L1219.9,569.729L1220.94,553.093C1255.38,551.418 1286.6,549.868 1313.65,548.434L1312.36,564.675L1327.28,563.809C1326.41,574.372 1322.72,620.142 1318.4,658.062L1288.43,660.083ZM471.449,476.777L471.424,461.054L459.564,460.526L459.554,444.941L448,444.539L448,366.864L471.397,366.201L471.391,429.602L495.931,430.068L495.944,365.585L521.568,365.011C521.464,405.632 521.566,439.372 521.589,446.746L508.643,446.41L508.692,462.527L495.997,462.053L496.048,478.04C483.268,477.421 473.417,476.884 471.449,476.777ZM534.944,479.778L534.785,447.071L561.897,447.693C561.784,422.555 561.794,401.423 561.796,397.4L548.135,397.433L548.198,364.473L589.869,363.723C589.744,391.091 589.757,420.951 589.906,448.281L618.74,448.841L619.034,482.823C615.132,482.697 573.461,481.369 534.944,479.778ZM561.943,347.631L562.178,314.487L590.249,313.359L589.962,346.924L561.943,347.631ZM633.761,483.29C633.297,443.95 633.171,402.658 633.396,363.024L663.326,362.577L663.239,379.88L678.444,379.756L678.537,362.358L725.047,361.709C725.025,364.538 724.908,379.384 724.89,397.077L693.758,397.132L693.77,414.632L663.21,414.498C663.254,436.916 663.447,462.067 663.742,484.203L633.761,483.29ZM757.267,486.867L756.984,469.041L741.089,468.69C740.621,433.787 740.524,396.559 740.813,361.493L772.693,361.058C772.432,390.325 772.46,422.267 772.77,451.454L808.453,451.861C808.197,422.419 808.174,390.212 808.389,360.716L844.354,360.439C844.148,396.449 844.218,434.643 844.552,470.402L826.565,470.19L826.783,488.322C786.306,487.677 762.827,487.022 757.267,486.867ZM862.758,488.826L862.464,452.327L916.89,452.618L916.842,434.234L880.495,434.124L880.453,415.221L862.326,415.191L862.349,378.608L880.472,378.553L880.532,360.228C925.788,360.004 963.722,359.987 971.535,359.984L971.528,396.854L916.811,396.867L916.816,415.265L953.278,415.29L953.289,434.296L971.532,434.308L971.548,471.143L953.339,471.117L953.377,489.497C923.543,489.414 891.518,489.174 862.758,488.826Z"/>
            </g>
        </g>
    </g>
</svg>
